# xmcd
#
# Track frame offsets:
#	150
#	17257
#	40402
#	61770
#	77972
#	99932
#	117822
#	135467
#	153725
#	175152
#
# Disc length: 2550 seconds
#
# Revision: 1
# Processed by: cddbd v1.5.1PL0 Copyright (c) Steve Scherf et al.
# Submitted via: audiograbber 1.83.01
#
DISCID=7209f40a
DTITLE=Jackie Neal - The Blues Won't Let You Go
DYEAR=1995
DGENRE=Blues
TTITLE0=Drop The Curtain On You
TTITLE1=Sometimes I Wonder
TTITLE2=The Blues Won't Let You Go
TTITLE3=I'm Tired
TTITLE4=That's What I Get For Thinking I'm Over You
TTITLE5=From Now On
TTITLE6=Barking Up My Tree
TTITLE7=Sometimes I Wish I Were Dead
TTITLE8=Man (Remix)
TTITLE9=Four In The Morning
EXTD=
EXTT0=
EXTT1=
EXTT2=
EXTT3=
EXTT4=
EXTT5=
EXTT6=
EXTT7=
EXTT8=
EXTT9=
PLAYORDER=
